<?xml version="1.0" encoding="UTF-8"?>
<svg id="Layer_1" data-name="Layer 1" xmlns="http://www.w3.org/2000/svg" xmlns:xlink="http://www.w3.org/1999/xlink" viewBox="0 0 99.65 99.65">
  <defs>
    <style>
      .cls-1 {
        fill: #fff;
      }

      .cls-2 {
        fill: url(#linear-gradient);
      }
    </style>
    <linearGradient id="linear-gradient" x1="75.89" y1="20.26" x2="13.8" y2="90.7" gradientUnits="userSpaceOnUse">
      <stop offset="0" stop-color="#429fc8"/>
      <stop offset="1" stop-color="#3555a6"/>
    </linearGradient>
  </defs>
  <rect class="cls-2" width="99.65" height="99.65" rx="22.96" ry="22.96"/>
  <path class="cls-1" d="M76.71,25.97l-22.45,22.44c-1.5,1.5-1.5,3.93,0,5.43l22.74,22.73c1.6,1.6,4.26,1.5,5.68-.26,5.37-6.64,8.65-15.06,8.79-24.26.15-9.81-3.29-18.83-9.09-25.83-1.44-1.74-4.07-1.84-5.67-.24Z"/>
  <path class="cls-1" d="M68.86,82.57l-15.59-15.58c-1.21-1.21-3.29-.35-3.29,1.36v20.56c0,1.11.94,1.99,2.04,1.93,6.04-.35,11.68-2.24,16.52-5.29,1.04-.65,1.18-2.11.32-2.98Z"/>
  <path class="cls-1" d="M68.48,16.23c-4.89-3.07-10.6-4.97-16.75-5.27-.95-.05-1.75.7-1.75,1.65v20.98c0,1.47,1.77,2.2,2.81,1.16l15.97-15.96c.75-.75.61-2-.28-2.56Z"/>
  <g>
    <path class="cls-1" d="M38.24,80.98l-12.33,4.12h12.33v3.28h-15.13v-6.09l9.05-2.93-9.05-3.08v-6.11h15.13v3.94h-12.33l12.33,4.2v2.68Z"/>
    <path class="cls-1" d="M38.24,63.47v3.54h-11.19v-3.34h2.08c-1.55-.51-2.33-1.4-2.33-2.67,0-.18.01-.4.03-.66h3.26c0,.74.1,1.32.31,1.73.21.41.58.75,1.11,1.01.54.26,1.26.39,2.17.39h4.55Z"/>
    <path class="cls-1" d="M38.24,55.55v3.78h-3.42v-3.78h3.42Z"/>
    <path class="cls-1" d="M23.12,48.7h7.11l-7.11-5.24v-3.74l5.4,4.01,9.73-5.01v4.31l-6.57,3.33,3.1,2.34h3.47v3.84h-15.13v-3.84Z"/>
    <path class="cls-1" d="M33.2,26.45v7.95c.2,0,.37.01.52.01.8,0,1.4-.23,1.81-.7.41-.47.61-1.03.61-1.68,0-1.22-.59-1.95-1.76-2.19l.22-3.3c2.59.92,3.88,2.79,3.88,5.62,0,1.23-.22,2.28-.67,3.14-.45.86-1.1,1.57-1.96,2.13s-1.88.84-3.08.84c-1.78,0-3.22-.56-4.31-1.68-1.09-1.12-1.64-2.56-1.64-4.32,0-1.59.51-2.95,1.52-4.09s2.64-1.71,4.86-1.71ZM31.28,34.41v-4.39c-1.54.11-2.31.81-2.31,2.09,0,1.37.77,2.14,2.31,2.3Z"/>
    <path class="cls-1" d="M38.24,13.4v3.65h-6.28c-.76,0-1.28.03-1.56.1-.28.07-.52.22-.71.48-.2.25-.29.57-.29.95,0,1.28.86,1.92,2.57,1.92h6.28v3.65h-11.19v-3.39h1.89c-.9-.56-1.48-1.12-1.74-1.66s-.39-1.14-.39-1.77c0-1.17.29-2.12.86-2.84s1.7-1.08,3.37-1.08h7.19Z"/>
  </g>
</svg>